<svg width="888" height="941" viewBox="0 0 888 941" fill="none" xmlns="http://www.w3.org/2000/svg">
<path d="M877 497C877 736.139 683.139 930 444 930C204.861 930 11 736.139 11 497C11 257.861 204.861 64 444 64C683.139 64 877 257.861 877 497Z" fill="#E3690A" stroke="black" stroke-width="22"/>
<path opacity="0.88" d="M494.954 336.214C494.954 355.881 491.198 374.443 483.685 391.899C476.172 409.135 465.896 424.272 452.859 437.309C440.042 450.126 425.016 460.291 407.78 467.804C390.544 475.317 372.093 479.073 352.426 479.073H304.696C298.067 479.073 291.88 480.289 286.135 482.719C280.389 485.15 275.307 488.575 270.887 492.995C266.689 497.193 263.374 502.165 260.944 507.91C258.513 513.656 257.297 519.843 257.297 526.472V573.871H482.027V669H162.168V526.472C162.168 506.806 165.925 488.354 173.438 471.118C180.951 453.662 191.116 438.525 203.932 425.708C216.97 412.671 232.107 402.506 249.342 395.214C266.578 387.701 285.03 383.944 304.696 383.944H352.426C359.056 383.944 365.243 382.729 370.988 380.298C376.734 377.868 381.705 374.553 385.904 370.355C390.323 365.935 393.749 360.853 396.179 355.107C398.61 349.141 399.825 342.843 399.825 336.214C399.825 329.585 398.61 323.398 396.179 317.652C393.749 311.907 390.323 306.935 385.904 302.737C381.705 298.317 376.734 294.892 370.988 292.461C365.243 290.031 359.056 288.815 352.426 288.815H182.719V193.686H352.426C372.093 193.686 390.544 197.443 407.78 204.956C425.016 212.469 440.042 222.744 452.859 235.782C465.896 248.598 476.172 263.624 483.685 280.86C491.198 298.096 494.954 316.548 494.954 336.214ZM689.19 669H594.061V288.815H546.662V193.686H689.19V669Z" fill="black"/>
<path opacity="0.88" d="M409.413 798H388.629V714.646H357.308V693.79H440.662V714.646H409.413V798ZM531.355 693.79L497.127 798H476.27L442.188 693.79H465.878L486.662 763.336L507.519 693.79H531.355Z" fill="black"/>
</svg>
